<?xml version="1.0" standalone="no"?>
<!DOCTYPE svg PUBLIC "-//W3C//DTD SVG 20010904//EN"
 "http://www.w3.org/TR/2001/REC-SVG-20010904/DTD/svg10.dtd">
<svg version="1.0" xmlns="http://www.w3.org/2000/svg"
 width="1280.000000pt" height="1280.000000pt" viewBox="0 0 1280.000000 1280.000000"
 preserveAspectRatio="xMidYMid meet">
<metadata>
Created by potrace 1.14, written by Peter Selinger 2001-2017
</metadata>
<g transform="translate(0.000000,1280.000000) scale(0.100000,-0.100000)"
fill="#000000" stroke="none">
<path d="M7680 11344 c-8 -2 -771 -117 -1695 -254 -924 -138 -1968 -293 -2320
-346 -635 -94 -1456 -217 -1985 -295 -151 -23 -278 -44 -282 -48 -5 -5 146
-447 554 -1611 150 -428 208 -600 201 -600 -4 0 -683 370 -1723 940 -168 92
-334 182 -369 199 l-64 33 38 -69 c78 -139 1353 -2375 1375 -2409 13 -22 62
-52 494 -303 143 -83 261 -153 263 -154 4 -5 18 -236 43 -717 11 -212 31 -614
46 -895 l26 -510 396 -685 c217 -377 569 -984 780 -1350 212 -366 406 -700
430 -743 24 -42 48 -77 52 -77 5 0 440 99 967 221 527 121 1035 238 1128 259
94 21 602 138 1130 260 912 210 2385 549 3210 739 l380 87 7 95 c4 51 37 839
73 1749 36 910 68 1669 71 1686 4 29 9 32 57 42 183 38 1256 263 1276 267 13
3 21 8 19 10 -2 3 -299 39 -659 80 -360 42 -658 77 -663 78 -4 2 3 16 16 32
72 87 1229 1487 1515 1832 183 222 333 407 333 412 0 5 -136 123 -302 263
-167 141 -548 462 -848 715 -1033 870 -1275 1073 -1280 1073 -3 -1 -336 -397
-740 -882 -404 -485 -787 -943 -850 -1019 -63 -76 -117 -138 -120 -138 -3 -1
-65 133 -139 297 -74 163 -156 344 -182 402 -27 58 -174 382 -327 720 -287
633 -284 627 -332 614z"/>
</g>
</svg>
